<svg xmlns="http://www.w3.org/2000/svg" width="256" height="256" viewBox="0 0 256 256" fill="none">
  <defs>
    <filter id="g" x="-50%" y="-50%" width="200%" height="200%">
      <feGaussianBlur stdDeviation="2.5" result="b"></feGaussianBlur>
      <feMerge>
        <feMergeNode in="b"></feMergeNode>
        <feMergeNode in="SourceGraphic"></feMergeNode>
      </feMerge>
    </filter>
  </defs>

  <rect x="12" y="44" width="232" height="168" rx="38" stroke="#00FF66" stroke-opacity="0.85" stroke-width="4" filter="url(#g)"></rect>
  <path d="M12 140H244" stroke="#00FF66" stroke-opacity="0.65" stroke-width="4"></path>

  <text x="28" y="86" font-family="ui-monospace, Menlo, Consolas, monospace" font-size="18" fill="#00FF66" fill-opacity="0.85">Android</text>
  <text x="28" y="110" font-family="ui-monospace, Menlo, Consolas, monospace" font-size="18" fill="#00FF66" fill-opacity="0.85">Acid</text>

  <!-- knobs -->
  <circle cx="110" cy="98" r="10" stroke="#00FF66" stroke-opacity="0.7" stroke-width="4"></circle>
  <circle cx="148" cy="98" r="10" stroke="#00FF66" stroke-opacity="0.7" stroke-width="4"></circle>
  <circle cx="186" cy="98" r="10" stroke="#00FF66" stroke-opacity="0.7" stroke-width="4"></circle>
  <circle cx="222" cy="98" r="6" stroke="#00FF66" stroke-opacity="0.55" stroke-width="4"></circle>

  <!-- step keys -->
  <g stroke="#00FF66" stroke-opacity="0.6" stroke-width="4">
    <rect x="86" y="160" width="12" height="14" rx="2"></rect>
    <rect x="108" y="160" width="12" height="14" rx="2"></rect>
    <rect x="130" y="160" width="12" height="14" rx="2"></rect>
    <rect x="152" y="160" width="12" height="14" rx="2"></rect>
    <rect x="174" y="160" width="12" height="14" rx="2"></rect>
    <rect x="196" y="160" width="12" height="14" rx="2"></rect>
  </g>

  <!-- little blocks -->
  <g stroke="#00FF66" stroke-opacity="0.55" stroke-width="4">
    <rect x="32" y="160" width="18" height="14" rx="2"></rect>
    <rect x="32" y="182" width="18" height="14" rx="2"></rect>
    <rect x="58" y="160" width="18" height="14" rx="2"></rect>
    <rect x="58" y="182" width="18" height="14" rx="2"></rect>
    <rect x="206" y="146" width="16" height="10" rx="2"></rect>
    <rect x="226" y="146" width="16" height="10" rx="2"></rect>
  </g>
</svg>
